<?xml version="1.0" encoding="UTF-8"?>
<svg width="179px" height="24px" viewBox="0 0 179 24" version="1.1" xmlns="http://www.w3.org/2000/svg" xmlns:xlink="http://www.w3.org/1999/xlink">
    <!-- Generator: Sketch 61.2 (89653) - https://sketch.com -->
    <title>web_logo备份</title>
    <desc>Created with Sketch.</desc>
    <g id="4.0.new_logo" stroke="none" stroke-width="1" fill="none" fill-rule="evenodd">
        <g id="web4.1_index" transform="translate(-88.000000, -52.000000)" fill="#FFFFFF">
            <g id="slogan_white" transform="translate(88.000000, 52.000000)">
                <g id="logo_white" fill-rule="evenodd" stroke-width="1">
                    <g id="logo_blue">
                        <polygon id="形状结合" fill-rule="nonzero" points="0 11.5 12.4329108 4.11492327 20.6973572 8.76734086 39.8302633 0 52 11.5"></polygon>
                        <path d="M42.444,21.852 L39.8302633,24 L34.439,21.852 L42.444,21.852 Z M16.357,18.5 L12.573,20.352 L12.298,20.352 L8.713,18.5 L16.357,18.5 Z M46.524,18.5 L44.27,20.352 L30.675,20.352 L26.027,18.5 L46.524,18.5 Z M52,14 L48.958,16.5 L21.008,16.5 L20.6973572,16.3762253 L20.444,16.5 L4.84,16.5 L0,14 L52,14 Z" id="形状结合" fill-rule="nonzero" opacity="0.300000012"></path>
                    </g>
                </g>
                <path d="M70.220316,17.7254902 L70.220316,12.1372549 L67.7348395,12.1372549 L67.7348395,15.3333333 L63.7460506,15.3333333 L63.7460506,4 L61,4 L61,17.7254902 L70.220316,17.7254902 Z M83.9305249,18 C84.4249476,18 84.8926448,17.9607843 85.3336164,17.8823529 C85.7745881,17.8039216 86.1788121,17.6993464 86.5462884,17.5686275 C86.9137648,17.4379085 87.2344714,17.2973856 87.5084084,17.1470588 C87.7823453,16.996732 88.0061718,16.8431373 88.1798879,16.6862745 L88.1798879,16.6862745 L87.3179888,15.0196078 C86.9972821,15.2810458 86.5796954,15.503268 86.0652285,15.6862745 C85.5507616,15.869281 84.8926448,15.9607843 84.0908782,15.9607843 C83.6899949,15.9607843 83.3124965,15.9183007 82.9583829,15.8333333 C82.6042693,15.748366 82.290244,15.6143791 82.0163071,15.4313725 C81.7423702,15.248366 81.5218844,15.0130719 81.3548497,14.7254902 C81.187815,14.4379085 81.0976162,14.0849673 81.0842534,13.6666667 L81.0842534,13.6666667 L88.3001529,13.6666667 C88.4337806,13.0130719 88.5005945,12.4052288 88.5005945,11.8431373 C88.5005945,11.0196078 88.3569447,10.3398693 88.069645,9.80392157 C87.7823453,9.26797386 87.4115282,8.83986928 86.9571938,8.51960784 C86.5028594,8.19934641 86.005096,7.97385621 85.4639035,7.84313725 C84.9227111,7.7124183 84.3982221,7.64705882 83.8904366,7.64705882 C83.1287583,7.64705882 82.4205311,7.75490196 81.7657551,7.97058824 C81.110979,8.18627451 80.5397203,8.50980392 80.0519789,8.94117647 C79.5642376,9.37254902 79.1800578,9.91176471 78.8994394,10.5588235 C78.6188211,11.2058824 78.478512,11.9607843 78.478512,12.8235294 C78.478512,13.6339869 78.6021177,14.3562092 78.849329,14.9901961 C79.0965404,15.624183 79.4539947,16.1666667 79.9216919,16.6176471 C80.389389,17.0686275 80.9606478,17.4117647 81.635468,17.6470588 C82.3102882,17.8823529 83.0753072,18 83.9305249,18 Z M86.0752506,11.7647059 L81.1443859,11.7647059 C81.1711115,11.4379085 81.2646509,11.1437908 81.4250042,10.8823529 C81.5853576,10.620915 81.7891399,10.4019608 82.0363513,10.2254902 C82.2835627,10.0490196 82.5608403,9.91503268 82.8681841,9.82352941 C83.175528,9.73202614 83.502916,9.68627451 83.8503482,9.68627451 C84.5986637,9.68627451 85.1565597,9.87254902 85.524036,10.245098 C85.8915124,10.6176471 86.0752506,11.124183 86.0752506,11.7647059 L86.0752506,11.7647059 Z M99.8055037,17.7254902 L99.8055037,11.372549 C99.9524942,10.9542484 100.229772,10.6045752 100.637337,10.3235294 C101.044901,10.0424837 101.495895,9.90196078 101.990318,9.90196078 C102.551554,9.90196078 103.015911,10.0784314 103.383387,10.4313725 C103.750863,10.7843137 103.934602,11.3594771 103.934602,12.1568627 L103.934602,12.1568627 L103.934602,17.7254902 L106.540343,17.7254902 L106.540343,11.627451 C106.540343,10.869281 106.450144,10.2320261 106.269747,9.71568627 C106.089349,9.19934641 105.845479,8.79084967 105.538135,8.49019608 C105.230791,8.18954248 104.859974,7.97385621 104.425684,7.84313725 C103.991393,7.7124183 103.527037,7.64705882 103.032614,7.64705882 C102.230848,7.64705882 101.542665,7.80392157 100.968065,8.11764706 C100.393466,8.43137255 99.9524942,8.79738562 99.6451503,9.21568627 L99.6451503,9.21568627 L99.5649737,9.21568627 L99.2643112,7.92156863 L95.7565823,7.92156863 L95.7565823,10.0784314 L97.1997622,10.0784314 L97.1997622,17.7254902 L99.8055037,17.7254902 Z M118.546798,18 C118.880867,18 119.214937,17.9640523 119.549006,17.8921569 C119.883076,17.8202614 120.19042,17.7156863 120.471038,17.5784314 C120.751656,17.4411765 121.005549,17.2810458 121.232716,17.0980392 C121.459883,16.9150327 121.640281,16.7058824 121.773909,16.4705882 L121.773909,16.4705882 L121.854085,16.4705882 L122.114659,17.7254902 L125.34177,17.7254902 L125.34177,15.5686275 L124.058943,15.5686275 C124.045581,15.503268 124.038899,15.4379085 124.038899,15.372549 C123.931997,14.4183007 123.878546,13.4509804 123.878546,12.4705882 L123.878546,12.4705882 L123.878546,4 L119.689315,4 L119.689315,6.15686275 L121.272804,6.15686275 L121.272804,7.98039216 C121.005549,7.87581699 120.688183,7.80065359 120.320707,7.75490196 C119.95323,7.70915033 119.562369,7.68627451 119.148123,7.68627451 C118.399807,7.68627451 117.711624,7.80718954 117.083574,8.04901961 C116.455523,8.29084967 115.91099,8.6372549 115.449975,9.08823529 C114.988959,9.53921569 114.628164,10.0915033 114.36759,10.745098 C114.107015,11.3986928 113.976728,12.1437908 113.976728,12.9803922 C113.976728,13.8431373 114.096993,14.5915033 114.337523,15.2254902 C114.578053,15.8594771 114.905441,16.3823529 115.319687,16.7941176 C115.733934,17.2058824 116.218334,17.5098039 116.772889,17.7058824 C117.327445,17.9019608 117.918748,18 118.546798,18 Z M119.148123,15.8431373 C118.346356,15.8431373 117.731669,15.5882353 117.30406,15.0784314 C116.876451,14.5686275 116.662647,13.8954248 116.662647,13.0588235 C116.662647,12.4705882 116.739482,11.9738562 116.893154,11.5686275 C117.046826,11.1633987 117.253949,10.8333333 117.514524,10.5784314 C117.775098,10.3235294 118.07576,10.1372549 118.416511,10.0196078 C118.757262,9.90196078 119.108035,9.84313725 119.46883,9.84313725 C119.829625,9.84313725 120.173716,9.87908497 120.501104,9.95098039 C120.828492,10.0228758 121.085726,10.130719 121.272804,10.2745098 L121.272804,10.2745098 L121.272804,14.4313725 C121.152539,14.8888889 120.895306,15.2385621 120.501104,15.4803922 C120.106902,15.7222222 119.655908,15.8431373 119.148123,15.8431373 Z M135.343808,17.7254902 L135.343808,11.9803922 L139.87379,11.9803922 L139.87379,17.7254902 L142.61984,17.7254902 L142.61984,4 L139.87379,4 L139.87379,9.58823529 L135.343808,9.58823529 L135.343808,4 L132.597758,4 L132.597758,17.7254902 L135.343808,17.7254902 Z M155.648548,18 C156.450314,18 157.175245,17.8856209 157.82334,17.6568627 C158.471434,17.4281046 159.02933,17.0915033 159.497027,16.6470588 C159.964725,16.2026144 160.32552,15.6601307 160.579412,15.0196078 C160.833305,14.379085 160.960251,13.6470588 160.960251,12.8235294 C160.960251,12.0522876 160.843327,11.3464052 160.609479,10.7058824 C160.37563,10.0653595 160.031538,9.51960784 159.577204,9.06862745 C159.12287,8.61764706 158.564974,8.26797386 157.903516,8.01960784 C157.242059,7.77124183 156.490403,7.64705882 155.648548,7.64705882 C154.846781,7.64705882 154.12185,7.76143791 153.473756,7.99019608 C152.825661,8.21895425 152.267765,8.55555556 151.800068,9 C151.332371,9.44444444 150.971576,9.9869281 150.717683,10.627451 C150.46379,11.2679739 150.336844,12 150.336844,12.8235294 C150.336844,13.5947712 150.453768,14.3006536 150.687617,14.9411765 C150.921465,15.5816993 151.265557,16.127451 151.719891,16.5784314 C152.174226,17.0294118 152.732122,17.379085 153.393579,17.627451 C154.055037,17.875817 154.806693,18 155.648548,18 Z M155.648548,15.8431373 C155.234302,15.8431373 154.866825,15.7679739 154.546119,15.6176471 C154.225412,15.4673203 153.951475,15.254902 153.724308,14.9803922 C153.497141,14.7058824 153.323424,14.3856209 153.20316,14.0196078 C153.082895,13.6535948 153.022762,13.254902 153.022762,12.8235294 C153.022762,12.2875817 153.089576,11.8300654 153.223204,11.4509804 C153.356831,11.0718954 153.54057,10.7581699 153.774418,10.5098039 C154.008267,10.2614379 154.285544,10.0816993 154.606251,9.97058824 C154.926958,9.85947712 155.27439,9.80392157 155.648548,9.80392157 C156.490403,9.80392157 157.138497,10.0816993 157.592832,10.6372549 C158.047166,11.1928105 158.274333,11.9215686 158.274333,12.8235294 C158.274333,13.869281 158.030463,14.6339869 157.542721,15.1176471 C157.05498,15.6013072 156.423589,15.8431373 155.648548,15.8431373 Z M173.688296,18 C174.490063,18 175.214993,17.8856209 175.863088,17.6568627 C176.511183,17.4281046 177.069079,17.0915033 177.536776,16.6470588 C178.004473,16.2026144 178.365268,15.6601307 178.619161,15.0196078 C178.873054,14.379085 179,13.6470588 179,12.8235294 C179,12.0522876 178.883076,11.3464052 178.649227,10.7058824 C178.415379,10.0653595 178.071287,9.51960784 177.616953,9.06862745 C177.162618,8.61764706 176.604722,8.26797386 175.943265,8.01960784 C175.281807,7.77124183 174.530151,7.64705882 173.688296,7.64705882 C172.88653,7.64705882 172.161599,7.76143791 171.513504,7.99019608 C170.86541,8.21895425 170.307514,8.55555556 169.839817,9 C169.372119,9.44444444 169.011324,9.9869281 168.757432,10.627451 C168.503539,11.2679739 168.376592,12 168.376592,12.8235294 C168.376592,13.5947712 168.493517,14.3006536 168.727365,14.9411765 C168.961214,15.5816993 169.305305,16.127451 169.75964,16.5784314 C170.213974,17.0294118 170.77187,17.379085 171.433328,17.627451 C172.094785,17.875817 172.846441,18 173.688296,18 Z M173.688296,15.8431373 C173.27405,15.8431373 172.906574,15.7679739 172.585867,15.6176471 C172.265161,15.4673203 171.991224,15.254902 171.764056,14.9803922 C171.536889,14.7058824 171.363173,14.3856209 171.242908,14.0196078 C171.122643,13.6535948 171.062511,13.254902 171.062511,12.8235294 C171.062511,12.2875817 171.129325,11.8300654 171.262952,11.4509804 C171.39658,11.0718954 171.580318,10.7581699 171.814167,10.5098039 C172.048015,10.2614379 172.325293,10.0816993 172.646,9.97058824 C172.966706,9.85947712 173.314138,9.80392157 173.688296,9.80392157 C174.530151,9.80392157 175.178246,10.0816993 175.63258,10.6372549 C176.086915,11.1928105 176.314082,11.9215686 176.314082,12.8235294 C176.314082,13.869281 176.070211,14.6339869 175.58247,15.1176471 C175.094728,15.6013072 174.463337,15.8431373 173.688296,15.8431373 Z" id="LendHoo" fill-rule="nonzero"></path>
            </g>
        </g>
    </g>
</svg>