<?xml version="1.0" encoding="UTF-8"?>
<svg width="175px" height="24px" viewBox="0 0 175 24" version="1.1" xmlns="http://www.w3.org/2000/svg" xmlns:xlink="http://www.w3.org/1999/xlink">
    <!-- Generator: Sketch 63.1 (92452) - https://sketch.com -->
    <title>web_logo备份</title>
    <desc>Created with Sketch.</desc>
    <g id="4.0.new_logo" stroke="none" stroke-width="1" fill="none" fill-rule="evenodd">
        <g id="切图资源" transform="translate(-373.000000, -114.000000)" fill="#FFFFFF">
            <g id="slogan_white" transform="translate(373.000000, 114.000000)">
                <g id="logo_white" fill-rule="evenodd" stroke-width="1">
                    <g id="logo_blue">
                        <polygon id="形状结合" fill-rule="nonzero" points="0 11.5 12.4329108 4.11492327 20.6973572 8.76734086 39.8302633 0 52 11.5"></polygon>
                        <path d="M42.444,21.852 L39.8302633,24 L34.439,21.852 L42.444,21.852 Z M16.357,18.5 L12.573,20.352 L12.298,20.352 L8.713,18.5 L16.357,18.5 Z M46.524,18.5 L44.27,20.352 L30.675,20.352 L26.027,18.5 L46.524,18.5 Z M52,14 L48.958,16.5 L21.008,16.5 L20.6973572,16.3762253 L20.444,16.5 L4.84,16.5 L0,14 L52,14 Z" id="形状结合" fill-rule="nonzero" opacity="0.300000012"></path>
                    </g>
                </g>
                <text id="BlueStone" font-family="PTMono-Bold, PT Mono" font-size="18" font-weight="bold" letter-spacing="2.207143">
                    <tspan x="61" y="18">BlueStone</tspan>
                </text>
            </g>
        </g>
    </g>
</svg>