<?xml version="1.0" encoding="UTF-8"?>
<svg width="179px" height="24px" viewBox="0 0 179 24" version="1.1" xmlns="http://www.w3.org/2000/svg" xmlns:xlink="http://www.w3.org/1999/xlink">
    <!-- Generator: Sketch 61.2 (89653) - https://sketch.com -->
    <title>web_logo</title>
    <desc>Created with Sketch.</desc>
    <g id="4.0.new_logo" stroke="none" stroke-width="1" fill="none" fill-rule="evenodd">
        <g id="切图资源" transform="translate(-104.000000, -53.000000)" fill="#002397">
            <g id="slogan_logo" transform="translate(104.000000, 53.000000)">
                <g id="web_logo">
                    <g id="BlueStone" transform="translate(61.000000, 4.000000)" fill-rule="nonzero">
                        <path d="M9.22031595,13.7254902 L9.22031595,8.1372549 L6.73483948,8.1372549 L6.73483948,11.3333333 L2.74605062,11.3333333 L2.74605062,0 L0,0 L0,13.7254902 L9.22031595,13.7254902 Z M22.9305249,14 C23.4249476,14 23.8926448,13.9607843 24.3336164,13.8823529 C24.7745881,13.8039216 25.1788121,13.6993464 25.5462884,13.5686275 C25.9137648,13.4379085 26.2344714,13.2973856 26.5084084,13.1470588 C26.7823453,12.996732 27.0061718,12.8431373 27.1798879,12.6862745 L27.1798879,12.6862745 L26.3179888,11.0196078 C25.9972821,11.2810458 25.5796954,11.503268 25.0652285,11.6862745 C24.5507616,11.869281 23.8926448,11.9607843 23.0908782,11.9607843 C22.6899949,11.9607843 22.3124965,11.9183007 21.9583829,11.8333333 C21.6042693,11.748366 21.290244,11.6143791 21.0163071,11.4313725 C20.7423702,11.248366 20.5218844,11.0130719 20.3548497,10.7254902 C20.187815,10.4379085 20.0976162,10.0849673 20.0842534,9.66666667 L20.0842534,9.66666667 L27.3001529,9.66666667 C27.4337806,9.0130719 27.5005945,8.40522876 27.5005945,7.84313725 C27.5005945,7.01960784 27.3569447,6.33986928 27.069645,5.80392157 C26.7823453,5.26797386 26.4115282,4.83986928 25.9571938,4.51960784 C25.5028594,4.19934641 25.005096,3.97385621 24.4639035,3.84313725 C23.9227111,3.7124183 23.3982221,3.64705882 22.8904366,3.64705882 C22.1287583,3.64705882 21.4205311,3.75490196 20.7657551,3.97058824 C20.110979,4.18627451 19.5397203,4.50980392 19.0519789,4.94117647 C18.5642376,5.37254902 18.1800578,5.91176471 17.8994394,6.55882353 C17.6188211,7.20588235 17.478512,7.96078431 17.478512,8.82352941 C17.478512,9.63398693 17.6021177,10.3562092 17.849329,10.9901961 C18.0965404,11.624183 18.4539947,12.1666667 18.9216919,12.6176471 C19.389389,13.0686275 19.9606478,13.4117647 20.635468,13.6470588 C21.3102882,13.8823529 22.0753072,14 22.9305249,14 Z M25.0752506,7.76470588 L20.1443859,7.76470588 C20.1711115,7.4379085 20.2646509,7.14379085 20.4250042,6.88235294 C20.5853576,6.62091503 20.7891399,6.40196078 21.0363513,6.2254902 C21.2835627,6.04901961 21.5608403,5.91503268 21.8681841,5.82352941 C22.175528,5.73202614 22.502916,5.68627451 22.8503482,5.68627451 C23.5986637,5.68627451 24.1565597,5.87254902 24.524036,6.24509804 C24.8915124,6.61764706 25.0752506,7.12418301 25.0752506,7.76470588 L25.0752506,7.76470588 Z M38.8055037,13.7254902 L38.8055037,7.37254902 C38.9524942,6.95424837 39.2297718,6.60457516 39.6373365,6.32352941 C40.0449012,6.04248366 40.4958949,5.90196078 40.9903176,5.90196078 C41.5515543,5.90196078 42.0159108,6.07843137 42.3833871,6.43137255 C42.7508635,6.78431373 42.9346017,7.35947712 42.9346017,8.15686275 L42.9346017,8.15686275 L42.9346017,13.7254902 L45.5403431,13.7254902 L45.5403431,7.62745098 C45.5403431,6.86928105 45.4501444,6.23202614 45.2697469,5.71568627 C45.0893494,5.19934641 44.8454787,4.79084967 44.5381349,4.49019608 C44.230791,4.18954248 43.859974,3.97385621 43.4256837,3.84313725 C42.9913935,3.7124183 42.527037,3.64705882 42.0326142,3.64705882 C41.2308476,3.64705882 40.5426646,3.80392157 39.9680652,4.11764706 C39.3934658,4.43137255 38.9524942,4.79738562 38.6451503,5.21568627 L38.6451503,5.21568627 L38.5649737,5.21568627 L38.2643112,3.92156863 L34.7565823,3.92156863 L34.7565823,6.07843137 L36.1997622,6.07843137 L36.1997622,13.7254902 L38.8055037,13.7254902 Z M57.546798,14 C57.8808674,14 58.2149369,13.9640523 58.5490063,13.8921569 C58.8830757,13.8202614 59.1904196,13.7156863 59.4710379,13.5784314 C59.7516562,13.4411765 60.0055489,13.2810458 60.2327162,13.0980392 C60.4598834,12.9150327 60.6402808,12.7058824 60.7739086,12.4705882 L60.7739086,12.4705882 L60.8540853,12.4705882 L61.1146594,13.7254902 L64.34177,13.7254902 L64.34177,11.5686275 L63.0589434,11.5686275 C63.0455807,11.503268 63.0388993,11.4379085 63.0388993,11.372549 C62.9319971,10.4183007 62.8785459,9.45098039 62.8785459,8.47058824 L62.8785459,8.47058824 L62.8785459,0 L58.6893154,0 L58.6893154,2.15686275 L60.2728045,2.15686275 L60.2728045,3.98039216 C60.0055489,3.87581699 59.688183,3.80065359 59.3207066,3.75490196 C58.9532303,3.70915033 58.5623691,3.68627451 58.148123,3.68627451 C57.3998075,3.68627451 56.7116245,3.80718954 56.083574,4.04901961 C55.4555235,4.29084967 54.9109903,4.6372549 54.4499745,5.08823529 C53.9889587,5.53921569 53.6281638,6.09150327 53.3675896,6.74509804 C53.1070155,7.39869281 52.9767284,8.14379085 52.9767284,8.98039216 C52.9767284,9.84313725 53.0969934,10.5915033 53.3375234,11.2254902 C53.5780533,11.8594771 53.9054414,12.3823529 54.3196874,12.7941176 C54.7339335,13.2058824 55.2183342,13.5098039 55.7728894,13.7058824 C56.3274447,13.9019608 56.9187475,14 57.546798,14 Z M58.148123,11.8431373 C57.3463564,11.8431373 56.7316686,11.5882353 56.3040598,11.0784314 C55.8764509,10.5686275 55.6626465,9.89542484 55.6626465,9.05882353 C55.6626465,8.47058824 55.7394825,7.97385621 55.8931544,7.56862745 C56.0468263,7.16339869 56.2539494,6.83333333 56.5145235,6.57843137 C56.7750977,6.32352941 57.0757601,6.1372549 57.416511,6.01960784 C57.7572618,5.90196078 58.1080347,5.84313725 58.4688296,5.84313725 C58.8296246,5.84313725 59.1737161,5.87908497 59.5011041,5.95098039 C59.8284922,6.02287582 60.0857256,6.13071895 60.2728045,6.2745098 L60.2728045,6.2745098 L60.2728045,10.4313725 C60.1525395,10.8888889 59.895306,11.2385621 59.5011041,11.4803922 C59.1069022,11.7222222 58.6559085,11.8431373 58.148123,11.8431373 Z M74.3438084,13.7254902 L74.3438084,7.98039216 L78.8737897,7.98039216 L78.8737897,13.7254902 L81.6198403,13.7254902 L81.6198403,0 L78.8737897,0 L78.8737897,5.58823529 L74.3438084,5.58823529 L74.3438084,0 L71.5977578,0 L71.5977578,13.7254902 L74.3438084,13.7254902 Z M94.6485476,14 C95.4503143,14 96.1752449,13.8856209 96.8233396,13.6568627 C97.4714342,13.4281046 98.0293302,13.0915033 98.4970273,12.6470588 C98.9647245,12.2026144 99.3255195,11.6601307 99.5794123,11.0196078 C99.833305,10.379085 99.9602514,9.64705882 99.9602514,8.82352941 C99.9602514,8.05228758 99.8433271,7.34640523 99.6094785,6.70588235 C99.3756299,6.06535948 99.0315384,5.51960784 98.577204,5.06862745 C98.1228696,4.61764706 97.5649737,4.26797386 96.9035162,4.01960784 C96.2420588,3.77124183 95.4904026,3.64705882 94.6485476,3.64705882 C93.846781,3.64705882 93.1218504,3.76143791 92.4737557,3.99019608 C91.8256611,4.21895425 91.2677651,4.55555556 90.8000679,5 C90.3323708,5.44444444 89.9715758,5.9869281 89.717683,6.62745098 C89.4637903,7.26797386 89.3368439,8 89.3368439,8.82352941 C89.3368439,9.59477124 89.4537682,10.3006536 89.6876168,10.9411765 C89.9214654,11.5816993 90.2655569,12.127451 90.7198913,12.5784314 C91.1742257,13.0294118 91.7321216,13.379085 92.3935791,13.627451 C93.0550365,13.875817 93.8066927,14 94.6485476,14 Z M94.6485476,11.8431373 C94.2343016,11.8431373 93.8668252,11.7679739 93.5461186,11.6176471 C93.2254119,11.4673203 92.951475,11.254902 92.7243078,10.9803922 C92.4971406,10.7058824 92.3234245,10.3856209 92.2031595,10.0196078 C92.0828945,9.65359477 92.022762,9.25490196 92.022762,8.82352941 C92.022762,8.2875817 92.0895759,7.83006536 92.2232037,7.45098039 C92.3568314,7.07189542 92.5405696,6.75816993 92.7744182,6.50980392 C93.0082668,6.26143791 93.2855444,6.08169935 93.6062511,5.97058824 C93.9269577,5.85947712 94.2743899,5.80392157 94.6485476,5.80392157 C95.4904026,5.80392157 96.1384973,6.08169935 96.5928317,6.6372549 C97.0471661,7.19281046 97.2743333,7.92156863 97.2743333,8.82352941 C97.2743333,9.86928105 97.0304626,10.6339869 96.5427213,11.1176471 C96.0549799,11.6013072 95.4235887,11.8431373 94.6485476,11.8431373 Z M112.688296,14 C113.490063,14 114.214993,13.8856209 114.863088,13.6568627 C115.511183,13.4281046 116.069079,13.0915033 116.536776,12.6470588 C117.004473,12.2026144 117.365268,11.6601307 117.619161,11.0196078 C117.873054,10.379085 118,9.64705882 118,8.82352941 C118,8.05228758 117.883076,7.34640523 117.649227,6.70588235 C117.415379,6.06535948 117.071287,5.51960784 116.616953,5.06862745 C116.162618,4.61764706 115.604722,4.26797386 114.943265,4.01960784 C114.281807,3.77124183 113.530151,3.64705882 112.688296,3.64705882 C111.88653,3.64705882 111.161599,3.76143791 110.513504,3.99019608 C109.86541,4.21895425 109.307514,4.55555556 108.839817,5 C108.372119,5.44444444 108.011324,5.9869281 107.757432,6.62745098 C107.503539,7.26797386 107.376592,8 107.376592,8.82352941 C107.376592,9.59477124 107.493517,10.3006536 107.727365,10.9411765 C107.961214,11.5816993 108.305305,12.127451 108.75964,12.5784314 C109.213974,13.0294118 109.77187,13.379085 110.433328,13.627451 C111.094785,13.875817 111.846441,14 112.688296,14 Z M112.688296,11.8431373 C112.27405,11.8431373 111.906574,11.7679739 111.585867,11.6176471 C111.265161,11.4673203 110.991224,11.254902 110.764056,10.9803922 C110.536889,10.7058824 110.363173,10.3856209 110.242908,10.0196078 C110.122643,9.65359477 110.062511,9.25490196 110.062511,8.82352941 C110.062511,8.2875817 110.129325,7.83006536 110.262952,7.45098039 C110.39658,7.07189542 110.580318,6.75816993 110.814167,6.50980392 C111.048015,6.26143791 111.325293,6.08169935 111.646,5.97058824 C111.966706,5.85947712 112.314138,5.80392157 112.688296,5.80392157 C113.530151,5.80392157 114.178246,6.08169935 114.63258,6.6372549 C115.086915,7.19281046 115.314082,7.92156863 115.314082,8.82352941 C115.314082,9.86928105 115.070211,10.6339869 114.58247,11.1176471 C114.094728,11.6013072 113.463337,11.8431373 112.688296,11.8431373 Z" id="LendHoo"></path>
                    </g>
                    <g id="logo_blue">
                        <g id="形状结合">
                            <polygon fill-rule="nonzero" points="0 11.5 12.4329108 4.11492327 20.6973572 8.76734086 39.8302633 0 52 11.5"></polygon>
                            <path d="M42.444,21.852 L39.8302633,24 L34.439,21.852 L42.444,21.852 Z M16.357,18.5 L12.573,20.352 L12.298,20.352 L8.713,18.5 L16.357,18.5 Z M46.524,18.5 L44.27,20.352 L30.675,20.352 L26.027,18.5 L46.524,18.5 Z M52,14 L48.958,16.5 L21.008,16.5 L20.6973572,16.3762253 L20.444,16.5 L4.84,16.5 L0,14 L52,14 Z" fill-rule="nonzero" opacity="0.300000012"></path>
                        </g>
                    </g>
                </g>
            </g>
        </g>
    </g>
</svg>